<svg id="combined-svg" xmlns="http://www.w3.org/2000/svg" width="1000" height="1000" viewBox="0 0 1000 1000" style="display: block; width: 100%; height: auto;" data-astro-cid-vrh4slaj=""> <rect id="canvas-bg" width="1000" height="1000" fill="#ffffff" data-astro-cid-vrh4slaj=""/>  <g id="svg-elements" data-astro-cid-vrh4slaj=""><g class="svg-item selected" data-index="0" transform="translate(699.9999389648438, 516.6663970947266) scale(0.32)"><svg xmlns="http://www.w3.org/2000/svg" viewBox="0 0 9 10" fill="none">
<path d="M3.16016 1.75195C3.9269 1.99895 4.66182 2.29075 5.3125 2.62988C6.95285 3.48485 7.7041 4.42357 7.7041 5.32129V8.44629H4.2041V5.32129C4.2041 3.95071 3.80832 2.76705 3.16016 1.75195Z" stroke="currentColor" stroke-width="2"/>
</svg></g><g class="svg-item " data-index="1" transform="translate(199.99992879231763, 66.66669464111328) scale(0.38)"><svg xmlns="http://www.w3.org/2000/svg" viewBox="0 0 11 11" fill="none">
<path d="M5.5 1C7.98528 1 10 3.01472 10 5.5C10 7.98528 7.98528 10 5.5 10C3.01472 10 1 7.98528 1 5.5C1 3.01472 3.01472 1 5.5 1Z" stroke="currentColor" stroke-width="2"/>
</svg></g><g class="svg-item " data-index="2" transform="translate(5.952402750651004, 19.047607421875) scale(0.85)"><svg xmlns="http://www.w3.org/2000/svg" viewBox="0 0 25 22" fill="none">
<path d="M11 13.375C12.7106 13.375 15.3342 13.8121 17.5049 14.6816C18.5892 15.116 19.4978 15.6336 20.1191 16.207C20.7337 16.7743 21 17.3279 21 17.875V21H1V17.875C1 17.3279 1.26627 16.7743 1.88086 16.207C2.50223 15.6336 3.41078 15.116 4.49512 14.6816C6.66576 13.8121 9.28938 13.375 11 13.375ZM19.25 1C21.7365 1 23.75 3.01353 23.75 5.5C23.75 7.98646 21.7365 10 19.25 10C19.1929 10 19.136 9.9978 19.0791 9.99512C19.8421 8.62847 20.25 7.08244 20.25 5.5C20.25 3.91727 19.8423 2.37074 19.0791 1.00391C19.136 1.00122 19.1929 1 19.25 1Z" stroke="currentColor" stroke-width="2"/>
</svg></g></g> </svg>