<svg width="491" height="192" viewBox="0 0 491 192" fill="none" xmlns="http://www.w3.org/2000/svg">
<path d="M83.2163 55.24V142H74.9363C73.6562 142 72.5762 141.8 71.6962 141.4C70.8562 140.96 70.0362 140.24 69.2362 139.24L23.9362 81.4C24.1762 84.04 24.2962 86.48 24.2962 88.72V142H10.0762V55.24H18.5362C19.2162 55.24 19.7962 55.28 20.2762 55.36C20.7962 55.4 21.2362 55.52 21.5962 55.72C21.9962 55.88 22.3762 56.14 22.7362 56.5C23.0962 56.82 23.4962 57.26 23.9362 57.82L69.4163 115.9C69.2962 114.5 69.1962 113.12 69.1163 111.76C69.0362 110.4 68.9962 109.14 68.9962 107.98V55.24H83.2163ZM152.205 80.44V142H143.145C141.185 142 139.945 141.1 139.425 139.3L138.405 134.38C135.885 136.94 133.105 139.02 130.065 140.62C127.025 142.18 123.445 142.96 119.325 142.96C115.965 142.96 112.985 142.4 110.385 141.28C107.825 140.12 105.665 138.5 103.905 136.42C102.145 134.34 100.805 131.88 99.8853 129.04C99.0053 126.16 98.5653 123 98.5653 119.56V80.44H113.385V119.56C113.385 123.32 114.245 126.24 115.965 128.32C117.725 130.36 120.345 131.38 123.825 131.38C126.385 131.38 128.785 130.82 131.025 129.7C133.265 128.54 135.385 126.96 137.385 124.96V80.44H152.205ZM187.56 142.96C182.2 142.96 178.08 141.46 175.2 138.46C172.36 135.42 170.94 131.24 170.94 125.92V91.54H164.64C163.84 91.54 163.16 91.28 162.6 90.76C162.04 90.24 161.76 89.46 161.76 88.42V82.54L171.66 80.92L174.78 64.12C174.98 63.32 175.36 62.7 175.92 62.26C176.48 61.82 177.2 61.6 178.08 61.6H185.76V80.98H202.2V91.54H185.76V124.9C185.76 126.82 186.22 128.32 187.14 129.4C188.1 130.48 189.4 131.02 191.04 131.02C191.96 131.02 192.72 130.92 193.32 130.72C193.96 130.48 194.5 130.24 194.94 130C195.42 129.76 195.84 129.54 196.2 129.34C196.56 129.1 196.92 128.98 197.28 128.98C197.72 128.98 198.08 129.1 198.36 129.34C198.64 129.54 198.94 129.86 199.26 130.3L203.7 137.5C201.54 139.3 199.06 140.66 196.26 141.58C193.46 142.5 190.56 142.96 187.56 142.96ZM225.808 91.12C227.728 87.44 230.008 84.56 232.648 82.48C235.288 80.36 238.408 79.3 242.008 79.3C244.848 79.3 247.128 79.92 248.848 81.16L247.888 92.26C247.688 92.98 247.388 93.5 246.988 93.82C246.628 94.1 246.128 94.24 245.488 94.24C244.888 94.24 243.988 94.14 242.788 93.94C241.628 93.74 240.488 93.64 239.368 93.64C237.728 93.64 236.268 93.88 234.988 94.36C233.708 94.84 232.548 95.54 231.508 96.46C230.508 97.34 229.608 98.42 228.808 99.7C228.048 100.98 227.328 102.44 226.648 104.08V142H211.828V80.44H220.528C222.048 80.44 223.108 80.72 223.708 81.28C224.308 81.8 224.708 82.76 224.908 84.16L225.808 91.12ZM272.094 80.44V142H257.214V80.44H272.094ZM274.134 62.5C274.134 63.78 273.874 64.98 273.354 66.1C272.834 67.22 272.134 68.2 271.254 69.04C270.414 69.88 269.414 70.56 268.254 71.08C267.094 71.56 265.854 71.8 264.534 71.8C263.254 71.8 262.034 71.56 260.874 71.08C259.754 70.56 258.774 69.88 257.934 69.04C257.094 68.2 256.414 67.22 255.894 66.1C255.414 64.98 255.174 63.78 255.174 62.5C255.174 61.18 255.414 59.94 255.894 58.78C256.414 57.62 257.094 56.62 257.934 55.78C258.774 54.94 259.754 54.28 260.874 53.8C262.034 53.28 263.254 53.02 264.534 53.02C265.854 53.02 267.094 53.28 268.254 53.8C269.414 54.28 270.414 54.94 271.254 55.78C272.134 56.62 272.834 57.62 273.354 58.78C273.874 59.94 274.134 61.18 274.134 62.5ZM340.383 80.44V142H331.323C329.363 142 328.123 141.1 327.603 139.3L326.583 134.38C324.063 136.94 321.283 139.02 318.243 140.62C315.203 142.18 311.623 142.96 307.503 142.96C304.143 142.96 301.163 142.4 298.563 141.28C296.003 140.12 293.843 138.5 292.083 136.42C290.323 134.34 288.983 131.88 288.063 129.04C287.183 126.16 286.743 123 286.743 119.56V80.44H301.563V119.56C301.563 123.32 302.423 126.24 304.143 128.32C305.903 130.36 308.523 131.38 312.003 131.38C314.563 131.38 316.963 130.82 319.203 129.7C321.443 128.54 323.563 126.96 325.563 124.96V80.44H340.383Z" fill="#0B1001"/>
<path d="M355.217 142V80.44H364.277C366.197 80.44 367.457 81.34 368.057 83.14L369.017 87.7C370.097 86.5 371.217 85.4 372.377 84.4C373.577 83.4 374.837 82.54 376.157 81.82C377.517 81.1 378.957 80.54 380.477 80.14C382.037 79.7 383.737 79.48 385.577 79.48C389.457 79.48 392.637 80.54 395.117 82.66C397.637 84.74 399.517 87.52 400.757 91C401.717 88.96 402.917 87.22 404.357 85.78C405.797 84.3 407.377 83.1 409.097 82.18C410.817 81.26 412.637 80.58 414.557 80.14C416.517 79.7 418.477 79.48 420.437 79.48C423.837 79.48 426.857 80 429.497 81.04C432.137 82.08 434.357 83.6 436.157 85.6C437.957 87.6 439.317 90.04 440.237 92.92C441.197 95.8 441.677 99.1 441.677 102.82V142H426.857V102.82C426.857 98.9 425.997 95.96 424.277 94C422.557 92 420.037 91 416.717 91C415.197 91 413.777 91.26 412.457 91.78C411.177 92.3 410.037 93.06 409.037 94.06C408.077 95.02 407.317 96.24 406.757 97.72C406.197 99.2 405.917 100.9 405.917 102.82V142H391.037V102.82C391.037 98.7 390.197 95.7 388.517 93.82C386.877 91.94 384.457 91 381.257 91C379.097 91 377.077 91.54 375.197 92.62C373.357 93.66 371.637 95.1 370.037 96.94V142H355.217Z" fill="#FF3131"/>
<path d="M449.483 50.557C447.286 59.6171 444.579 63.4964 439.181 69.9507C448.573 64.9768 454.079 62.8409 464.484 60.6265L436.246 77.2146C444.035 80.5178 448.408 81.1241 456.214 81.0553C471.547 76.0314 479.129 70.0284 490.03 51.0832C474.364 41.5742 465.471 42.3129 449.483 50.557Z" fill="#7ECD43" stroke="#7ECD43" stroke-width="0.463066"/>
<path d="M430.663 31.8842C428.316 37.5529 425.299 50.3606 425.65 71.5139C409.498 60.0573 408.347 46.0317 414.305 31.8842C420.652 20.5045 424.818 15.415 433.522 9C452.508 31.6902 450.734 50.9271 430.744 68.967C429.5 55.0682 429.613 46.8854 430.663 31.8842Z" fill="#7ECD43"/>
<path d="M430.744 31.6902C430.717 31.7539 430.69 31.8186 430.663 31.8842M430.663 31.8842C428.316 37.5529 425.299 50.3606 425.65 71.5139C409.498 60.0573 408.347 46.0317 414.305 31.8842C420.652 20.5045 424.818 15.415 433.522 9C452.508 31.6902 450.734 50.9271 430.744 68.967C429.5 55.0682 429.613 46.8854 430.663 31.8842Z" stroke="#7ECD43" stroke-width="0.463066"/>
</svg>
